<svg xmlns="http://www.w3.org/2000/svg" viewBox="0 0 32 32" width="512" height="512">
  <!-- Background -->
  <rect width="32" height="32" fill="#1a1a2e"/>
  
  <!-- Egg shadow -->
  <ellipse cx="16" cy="28" rx="8" ry="2" fill="#0f0f1a"/>
  
  <!-- Egg body -->
  <path d="M16 6 L20 8 L23 12 L24 16 L24 20 L23 24 L20 26 L16 27 L12 26 L9 24 L8 20 L8 16 L9 12 L12 8 Z" fill="#ffeaa7"/>
  <path d="M16 6 L20 8 L23 12 L24 16 L24 20 L23 24 L20 26 L16 27" fill="#fdcb6e"/>
  
  <!-- Egg highlight -->
  <path d="M12 10 L14 9 L15 10 L14 12 L12 12 Z" fill="#fff5e6"/>
  <rect x="11" y="14" width="2" height="2" fill="#fff5e6"/>
  
  <!-- Egg stripe pattern -->
  <rect x="10" y="14" width="12" height="2" fill="#ff6b6b" opacity="0.7"/>
  <rect x="9" y="18" width="14" height="2" fill="#ff6b6b" opacity="0.5"/>
  
  <!-- Sparkles -->
  <rect x="5" y="8" width="2" height="2" fill="#ffd93d"/>
  <rect x="25" y="12" width="2" height="2" fill="#ffd93d"/>
  <rect x="4" y="20" width="2" height="2" fill="#ffd93d"/>
  <rect x="26" y="22" width="2" height="2" fill="#ffd93d"/>
  
  <!-- Small stars -->
  <rect x="6" y="5" width="1" height="1" fill="#a8dadc"/>
  <rect x="27" y="7" width="1" height="1" fill="#a8dadc"/>
  <rect x="3" y="15" width="1" height="1" fill="#a8dadc"/>
  <rect x="28" y="18" width="1" height="1" fill="#a8dadc"/>
</svg>
